<svg width="368" height="192" viewBox="0 0 368 192" fill="none" xmlns="http://www.w3.org/2000/svg">
<path d="M60.6735 49.3419C50.5145 61.3849 30.5922 58.4052 25.9745 43.3824C25.7106 42.6375 25.5787 41.7684 25.4468 41.0234C36.1335 38.7887 46.5564 31.4635 47.4799 22.6485C48.2716 14.7025 39.6958 12.3436 34.0226 16.8132C27.2939 22.1518 22.5442 29.9736 22.1484 38.2918C15.2877 39.1609 8.55905 37.4227 4.86487 31.0908C-1.33609 20.4137 6.97583 6.01145 18.0584 1.79017C19.2458 1.4177 18.7181 -0.320475 17.5306 0.0519911C2.22616 4.14932 -5.68995 24.2625 4.73293 36.1812C8.82292 40.7751 15.4197 42.2648 22.2803 41.5199C23.2039 49.9624 30.1964 56.6668 38.5081 59.2741C48.1394 62.2538 56.9791 57.9086 62.6523 50.8315C63.576 49.7141 61.5968 48.3486 60.6735 49.3419ZM31.12 24.2625C33.2309 21.5311 36.0016 18.4272 39.5638 17.3098C42.9939 16.1924 44.1816 20.662 44.3133 22.6485C44.4452 25.1316 42.5981 27.3664 40.883 29.1045C37.3209 32.9532 31.3838 36.3055 25.3148 37.7952C25.7106 32.9532 28.2174 28.2355 31.12 24.2625Z" fill="#9B51E0"/>
<path d="M68.0615 44.7481C64.3673 44.7481 60.5412 44.9964 56.979 45.8655C55.5279 46.2379 56.1873 48.1003 57.6389 47.852C60.5414 47.3553 63.5759 47.4795 66.4785 47.6037C66.3466 49.2175 66.2146 50.9556 65.9508 52.5697C65.6869 53.8112 64.7634 55.6735 65.555 56.9151C65.9508 57.5361 66.6104 57.5361 67.2701 57.2876C68.8533 56.6668 68.8533 54.0595 69.1172 52.6938C69.513 50.4588 69.6447 48.3484 69.6447 46.1134C69.6447 45.3689 68.8531 44.7481 68.0615 44.7481Z" fill="#9B51E0"/>
<path d="M366.779 174.354H365.721V173.358C365.721 172.723 365.174 172.209 364.5 172.209C363.826 172.209 363.279 172.723 363.279 173.358V174.354H362.221C361.547 174.354 361 174.868 361 175.503C361 176.137 361.547 176.651 362.221 176.651H363.279V177.647C363.279 178.282 363.826 178.796 364.5 178.796C365.174 178.796 365.721 178.282 365.721 177.647V176.651H366.779C367.453 176.651 368 176.137 368 175.503C368 174.868 367.453 174.354 366.779 174.354Z" fill="#31BEBE"/>
<path d="M337 147.742C334.794 147.742 333 146.053 333 143.978C333 141.902 334.794 140.214 337 140.214C339.206 140.214 341 141.902 341 143.978C341 146.053 339.206 147.742 337 147.742Z" fill="#FF6666"/>
<path d="M48.5449 192C50.5027 192 52.0898 190.519 52.0898 188.692C52.0898 186.865 50.5027 185.383 48.5449 185.383C46.5871 185.383 45 186.865 45 188.692C45 190.519 46.5871 192 48.5449 192Z" fill="#AD77E3"/>
<path d="M307.907 28.1434H306.093V26.4365C306.093 25.3487 305.156 24.4669 304 24.4669C302.844 24.4669 301.907 25.3487 301.907 26.4365V28.1434H300.093C298.937 28.1434 298 29.0253 298 30.1131C298 31.2008 298.937 32.0827 300.093 32.0827H301.907V33.7896C301.907 34.8774 302.844 35.7592 304 35.7592C305.156 35.7592 306.093 34.8774 306.093 33.7896V32.0827H307.907C309.063 32.0827 310 31.2008 310 30.1131C310 29.0253 309.063 28.1434 307.907 28.1434Z" fill="#FABE2C"/>
<path d="M58.907 115.659H57.093V113.952C57.093 112.865 56.1559 111.983 55 111.983C53.8441 111.983 52.907 112.865 52.907 113.952V115.659H51.093C49.9371 115.659 49 116.541 49 117.629C49 118.717 49.9371 119.599 51.093 119.599H52.907V121.306C52.907 122.393 53.8441 123.275 55 123.275C56.1559 123.275 57.093 122.393 57.093 121.306V119.599H58.907C60.0629 119.599 61 118.717 61 117.629C61 116.541 60.0629 115.659 58.907 115.659Z" fill="#FABE2C"/>
<g clip-path="url(#clip0_514_1849)">
<path d="M196.501 163.643C195.158 163.643 193.93 162.935 193.33 161.814C183.339 143.166 148.389 149.399 148.038 149.464C146.118 149.819 144.252 148.657 143.87 146.866C143.488 145.075 144.731 143.334 146.65 142.976C147.056 142.9 156.728 141.129 167.976 142.042C180.843 143.086 190.576 147.261 196.501 154.211C202.425 147.261 212.158 143.086 225.025 142.042C236.272 141.128 245.945 142.9 246.351 142.976C248.271 143.334 249.516 145.077 249.132 146.868C248.748 148.66 246.881 149.821 244.961 149.464C244.612 149.399 209.662 143.166 199.671 161.814C199.071 162.935 197.843 163.643 196.501 163.643Z" fill="#E2DFF4"/>
<path d="M199.671 161.814C209.661 143.166 244.611 149.399 244.961 149.464C246.88 149.821 248.747 148.66 249.132 146.868C249.515 145.077 248.271 143.334 246.351 142.976C245.944 142.9 236.272 141.128 225.024 142.042C212.158 143.086 202.425 147.261 196.5 154.211V163.643C197.843 163.643 199.07 162.935 199.671 161.814Z" fill="#BEBCDD"/>
<path d="M250.985 163.061C250.741 162.15 250.094 161.38 249.205 160.939C247.86 160.275 217.02 145.291 196.5 156.413C175.98 145.293 145.139 160.275 143.795 160.939C142.906 161.38 142.259 162.15 142.015 163.061L138.827 174.955L142.593 177.449L181.933 167.914C181.933 167.914 197.058 189.237 210.493 167.914L254.173 178.418L254.327 174.993L250.985 163.061Z" fill="#F9F9F9"/>
<path d="M254.173 174.956L250.985 163.061C250.741 162.15 250.094 161.379 249.205 160.94C247.86 160.275 217.021 145.292 196.5 156.413V179.964C203.545 179.964 209.824 175.902 213.009 170.254L252.581 180.303L254.329 174.994L254.173 174.956Z" fill="#E2DFF4"/>
<path d="M253.457 181.509C253.167 181.509 252.874 181.475 252.581 181.406L213.009 172.019C209.824 177.667 203.545 181.287 196.5 181.287C189.455 181.287 183.176 177.667 179.991 172.019L140.419 181.406C138.52 181.856 136.592 180.785 136.11 179.015C135.628 177.244 136.775 175.443 138.673 174.993L181.199 164.905C183.023 164.472 184.889 165.444 185.453 167.117C186.979 171.635 191.418 174.671 196.5 174.671C201.582 174.671 206.021 171.635 207.547 167.117C208.111 165.444 209.977 164.473 211.801 164.905L254.328 174.993C256.225 175.443 257.372 177.244 256.89 179.015C256.482 180.512 255.04 181.509 253.457 181.509Z" fill="#BC8173"/>
<path d="M213.009 172.019L252.581 181.406C252.874 181.475 253.168 181.509 253.457 181.509C255.04 181.509 256.482 180.512 256.89 179.015C257.372 177.244 256.225 175.443 254.328 174.993L211.801 164.905C209.977 164.473 208.111 165.444 207.547 167.117C206.021 171.635 201.582 174.671 196.5 174.671V181.287C203.545 181.287 209.825 177.667 213.009 172.019Z" fill="#865240"/>
<path d="M250.383 76.746H247.31V73.8788C247.31 72.0517 245.723 70.5705 243.765 70.5705C241.808 70.5705 240.221 72.0517 240.221 73.8788V76.746H237.148C235.191 76.746 233.604 78.2272 233.604 80.0542C233.604 81.8813 235.191 83.3625 237.148 83.3625H240.221V86.2297C240.221 88.0567 241.808 89.5379 243.765 89.5379C245.723 89.5379 247.31 88.0567 247.31 86.2297V83.3625H250.383C252.34 83.3625 253.927 81.8813 253.927 80.0542C253.927 78.2272 252.34 76.746 250.383 76.746Z" fill="#31BEBE"/>
<path d="M215.408 133.649C214.019 133.649 212.701 132.883 212.134 131.613C211.381 129.926 212.236 127.989 214.043 127.286L236.73 118.464C238.537 117.761 240.612 118.559 241.365 120.246C242.118 121.932 241.264 123.869 239.457 124.572L216.77 133.394C216.324 133.567 215.862 133.649 215.408 133.649Z" fill="#FABE2C"/>
<path d="M204.065 130.12C203.793 130.12 203.517 130.091 203.241 130.029C201.337 129.606 200.16 127.822 200.614 126.045L210.067 88.9923C210.52 87.2149 212.431 86.1174 214.336 86.5404C216.241 86.9636 217.417 88.7475 216.964 90.5249L207.511 127.578C207.123 129.097 205.669 130.12 204.065 130.12Z" fill="#FABE2C"/>
<path d="M188.934 130.12C187.198 130.12 185.681 128.929 185.429 127.279L181.647 102.577C181.371 100.768 182.717 99.0927 184.656 98.8342C186.591 98.5752 188.389 99.8326 188.666 101.642L192.447 126.343C192.724 128.152 191.378 129.828 189.439 130.086C189.269 130.109 189.1 130.12 188.934 130.12Z" fill="#FED843"/>
<path d="M173.813 133.648C172.906 133.648 171.998 133.325 171.307 132.679L148.619 111.506C147.235 110.214 147.235 108.12 148.619 106.828C150.004 105.536 152.248 105.536 153.633 106.828L176.32 128.001C177.704 129.292 177.704 131.387 176.32 132.679C175.627 133.325 174.72 133.648 173.813 133.648Z" fill="#FED843"/>
<path d="M141.673 131.884C143.631 131.884 145.218 130.403 145.218 128.576C145.218 126.749 143.631 125.267 141.673 125.267C139.715 125.267 138.128 126.749 138.128 128.576C138.128 130.403 139.715 131.884 141.673 131.884Z" fill="#5ED8D3"/>
<path d="M196.5 86.009C198.458 86.009 200.045 84.5278 200.045 82.7007C200.045 80.8735 198.458 79.3923 196.5 79.3923C194.542 79.3923 192.955 80.8735 192.955 82.7007C192.955 84.5278 194.542 86.009 196.5 86.009Z" fill="#FED843"/>
<path d="M228.641 105.417C230.598 105.417 232.186 103.936 232.186 102.109C232.186 100.282 230.598 98.8007 228.641 98.8007C226.683 98.8007 225.096 100.282 225.096 102.109C225.096 103.936 226.683 105.417 228.641 105.417Z" fill="#AD77E3"/>
<path d="M200.045 82.7007C200.045 80.8734 198.458 79.3923 196.5 79.3923V86.009C198.458 86.009 200.045 84.5277 200.045 82.7007Z" fill="#FABE2C"/>
<path d="M147.345 89.5379C141.22 89.5379 136.237 84.8878 136.237 79.172C136.237 73.4562 141.22 68.8061 147.345 68.8061C153.469 68.8061 158.452 73.4562 158.452 79.172C158.452 84.8878 153.469 89.5379 147.345 89.5379Z" fill="#FF6666"/>
</g>
<path d="M197.501 163.643C196.158 163.643 194.93 162.935 194.33 161.814C184.339 143.166 149.389 149.399 149.038 149.464C147.118 149.819 145.252 148.657 144.87 146.866C144.488 145.075 145.731 143.334 147.65 142.976C148.056 142.9 157.728 141.129 168.976 142.042C181.843 143.086 191.576 147.261 197.501 154.211C203.425 147.261 213.158 143.086 226.025 142.042C237.272 141.128 246.945 142.9 247.351 142.976C249.271 143.334 250.516 145.077 250.132 146.868C249.748 148.66 247.881 149.821 245.961 149.464C245.612 149.399 210.662 143.166 200.671 161.814C200.071 162.935 198.843 163.643 197.501 163.643Z" fill="#E2DFF4"/>
<path d="M200.671 161.814C210.661 143.166 245.611 149.399 245.961 149.464C247.88 149.821 249.747 148.66 250.132 146.868C250.515 145.077 249.271 143.334 247.351 142.976C246.944 142.9 237.272 141.128 226.024 142.042C213.158 143.086 203.425 147.261 197.5 154.211V163.643C198.843 163.643 200.07 162.935 200.671 161.814Z" fill="#BEBCDD"/>
<path d="M251.985 163.061C251.741 162.15 251.094 161.38 250.205 160.939C248.86 160.275 218.02 145.291 197.5 156.413C176.98 145.293 146.139 160.275 144.795 160.939C143.906 161.38 143.259 162.15 143.015 163.061L139.827 174.955L143.593 177.449L182.933 167.913C182.933 167.913 198.058 189.237 211.493 167.913L255.173 178.418L255.327 174.993L251.985 163.061Z" fill="#F9F9F9"/>
<path d="M255.173 174.956L251.985 163.061C251.741 162.15 251.094 161.379 250.205 160.94C248.86 160.275 218.021 145.292 197.5 156.413V179.964C204.545 179.964 210.824 175.902 214.009 170.254L253.581 180.303L255.329 174.994L255.173 174.956Z" fill="#E2DFF4"/>
<path d="M254.457 181.509C254.167 181.509 253.874 181.475 253.581 181.406L214.009 172.019C210.824 177.667 204.545 181.287 197.5 181.287C190.455 181.287 184.176 177.667 180.991 172.019L141.419 181.406C139.52 181.856 137.592 180.785 137.11 179.015C136.628 177.244 137.775 175.443 139.673 174.993L182.199 164.905C184.023 164.472 185.889 165.444 186.453 167.117C187.979 171.635 192.418 174.671 197.5 174.671C202.582 174.671 207.021 171.635 208.547 167.117C209.111 165.444 210.977 164.473 212.801 164.905L255.328 174.993C257.225 175.443 258.372 177.244 257.89 179.015C257.482 180.512 256.04 181.509 254.457 181.509Z" fill="#BC8173"/>
<path d="M214.009 172.019L253.581 181.406C253.874 181.475 254.168 181.509 254.457 181.509C256.04 181.509 257.482 180.512 257.89 179.015C258.372 177.244 257.225 175.443 255.328 174.993L212.801 164.905C210.977 164.473 209.111 165.444 208.547 167.117C207.021 171.635 202.582 174.671 197.5 174.671V181.287C204.545 181.287 210.825 177.667 214.009 172.019Z" fill="#865240"/>
<path d="M251.383 76.7459H248.31V73.8788C248.31 72.0517 246.723 70.5705 244.765 70.5705C242.808 70.5705 241.221 72.0517 241.221 73.8788V76.7459H238.148C236.191 76.7459 234.604 78.2272 234.604 80.0542C234.604 81.8813 236.191 83.3625 238.148 83.3625H241.221V86.2296C241.221 88.0567 242.808 89.5379 244.765 89.5379C246.723 89.5379 248.31 88.0567 248.31 86.2296V83.3625H251.383C253.34 83.3625 254.927 81.8813 254.927 80.0542C254.927 78.2272 253.34 76.7459 251.383 76.7459Z" fill="#31BEBE"/>
<path d="M216.408 133.649C215.019 133.649 213.701 132.883 213.134 131.613C212.381 129.926 213.236 127.989 215.043 127.286L237.73 118.464C239.537 117.761 241.612 118.559 242.365 120.246C243.118 121.932 242.264 123.869 240.457 124.572L217.77 133.394C217.324 133.567 216.862 133.649 216.408 133.649Z" fill="#FABE2C"/>
<path d="M205.065 130.12C204.793 130.12 204.517 130.091 204.241 130.029C202.337 129.606 201.16 127.822 201.614 126.045L211.067 88.9922C211.52 87.2148 213.431 86.1174 215.336 86.5404C217.241 86.9636 218.417 88.7474 217.964 90.5249L208.511 127.578C208.123 129.097 206.669 130.12 205.065 130.12Z" fill="#FABE2C"/>
<path d="M189.934 130.12C188.198 130.12 186.681 128.929 186.429 127.279L182.647 102.577C182.371 100.768 183.717 99.0926 185.656 98.8341C187.591 98.5752 189.389 99.8326 189.666 101.642L193.447 126.343C193.724 128.152 192.378 129.828 190.439 130.086C190.269 130.109 190.1 130.12 189.934 130.12Z" fill="#FED843"/>
<path d="M174.813 133.648C173.906 133.648 172.998 133.325 172.307 132.679L149.619 111.506C148.235 110.214 148.235 108.12 149.619 106.828C151.004 105.536 153.248 105.536 154.633 106.828L177.32 128.001C178.704 129.292 178.704 131.387 177.32 132.679C176.627 133.325 175.72 133.648 174.813 133.648Z" fill="#FED843"/>
<path d="M142.673 131.884C144.631 131.884 146.218 130.403 146.218 128.576C146.218 126.749 144.631 125.267 142.673 125.267C140.715 125.267 139.128 126.749 139.128 128.576C139.128 130.403 140.715 131.884 142.673 131.884Z" fill="#5ED8D3"/>
<path d="M197.5 86.0089C199.458 86.0089 201.045 84.5278 201.045 82.7006C201.045 80.8735 199.458 79.3923 197.5 79.3923C195.542 79.3923 193.955 80.8735 193.955 82.7006C193.955 84.5278 195.542 86.0089 197.5 86.0089Z" fill="#FED843"/>
<path d="M229.641 105.417C231.598 105.417 233.186 103.936 233.186 102.109C233.186 100.282 231.598 98.8007 229.641 98.8007C227.683 98.8007 226.096 100.282 226.096 102.109C226.096 103.936 227.683 105.417 229.641 105.417Z" fill="#AD77E3"/>
<path d="M201.045 82.7006C201.045 80.8733 199.458 79.3923 197.5 79.3923V86.0089C199.458 86.0089 201.045 84.5277 201.045 82.7006Z" fill="#FABE2C"/>
<path d="M148.345 89.5379C142.22 89.5379 137.237 84.8878 137.237 79.172C137.237 73.4562 142.22 68.8061 148.345 68.8061C154.469 68.8061 159.452 73.4562 159.452 79.172C159.452 84.8878 154.469 89.5379 148.345 89.5379Z" fill="#FF6666"/>
<defs>
<clipPath id="clip0_514_1849">
<rect width="121" height="112.924" fill="white" transform="translate(136 68.6954)"/>
</clipPath>
</defs>
</svg>
