<svg width="24" height="25" viewBox="0 0 24 25" fill="none" xmlns="http://www.w3.org/2000/svg">
<path d="M17.0002 9.66994C16.8128 9.48369 16.5594 9.37915 16.2952 9.37915C16.031 9.37915 15.7776 9.48369 15.5902 9.66994L12.0002 13.2099L8.46019 9.66994C8.27283 9.48369 8.01938 9.37915 7.75519 9.37915C7.49101 9.37915 7.23756 9.48369 7.05019 9.66994C6.95646 9.76291 6.88207 9.87351 6.8313 9.99537C6.78053 10.1172 6.75439 10.2479 6.75439 10.3799C6.75439 10.512 6.78053 10.6427 6.8313 10.7645C6.88207 10.8864 6.95646 10.997 7.05019 11.0899L11.2902 15.3299C11.3832 15.4237 11.4938 15.4981 11.6156 15.5488C11.7375 15.5996 11.8682 15.6257 12.0002 15.6257C12.1322 15.6257 12.2629 15.5996 12.3848 15.5488C12.5066 15.4981 12.6172 15.4237 12.7102 15.3299L17.0002 11.0899C17.0939 10.997 17.1683 10.8864 17.2191 10.7645C17.2699 10.6427 17.296 10.512 17.296 10.3799C17.296 10.2479 17.2699 10.1172 17.2191 9.99537C17.1683 9.87351 17.0939 9.76291 17.0002 9.66994Z" fill="#0A033C"/>
</svg>
