<svg width="400" height="195" viewBox="0 0 400 195" fill="none" xmlns="http://www.w3.org/2000/svg">
<g clip-path="url(#clip0_514_1850)">
<path d="M263.156 124.884C262.267 124.884 261.457 124.974 260.783 125.115L262.202 133.353L262.167 133.36C262.18 133.358 263.41 133.134 264.691 133.46C266.269 133.861 266.765 134.803 267.043 135.672C268.315 139.659 270.865 142.384 274.222 143.342C275.675 143.756 276.986 143.755 278.693 143.44C280.91 143.03 282.351 140.641 281.836 138.231C281.39 136.14 279.527 134.827 277.639 135.223C277.224 135.311 276.796 135.313 276.375 135.259C276.218 135.238 276.075 135.21 275.976 135.174C275.482 134.992 274.761 134.562 274.228 132.892C272.197 126.53 266.961 124.884 263.156 124.884Z" fill="#FFBBA6"/>
<path d="M263.834 112.011L214.764 78.9268C209.562 79.3776 200.716 80.9043 198.448 81.5483C197.191 81.9052 195.868 81.3881 195.083 80.25C191.115 74.4936 184.853 71.0786 178.166 71.2089L170.057 71.3668C168.081 71.4054 166.739 73.5919 167.444 75.6248L172.747 90.9113C173.157 92.0948 172.878 93.4285 172.047 94.3051C168.7 97.8366 165.86 102.962 164.054 106.608C163.438 107.851 162.256 108.623 160.969 108.623H156.005C153.775 108.623 151.968 110.612 151.968 113.067V132.471C151.968 139.032 156.799 144.351 162.758 144.351C165.303 154.784 171.619 161.403 176.133 164.965V177.279C176.133 178.823 177.27 180.074 178.671 180.074H189.872C191.274 180.074 192.411 178.823 192.411 177.279L192.409 170.194C192.409 170.194 213.485 178.751 233.305 170.247L233.306 177.279C233.306 178.823 234.443 180.074 235.844 180.074H246.774C248.175 180.074 249.312 178.823 249.312 177.279V169.093C249.312 166.74 250.23 164.487 251.863 162.968C260.884 154.572 266.614 142.023 266.614 127.999C266.614 122.629 265.489 116.883 263.834 112.011Z" fill="#FFDDCD"/>
<path d="M213.168 81.4957V174.006C219.411 174.092 226.433 173.195 233.304 170.247L233.306 177.279C233.306 178.823 234.442 180.074 235.844 180.074H246.773C248.175 180.074 249.312 178.823 249.312 177.279V169.093C249.312 166.74 250.23 164.487 251.862 162.968C260.884 154.572 266.614 142.023 266.614 127.999C266.614 122.629 265.489 116.883 263.834 112.011L213.168 81.4957Z" fill="#FFCBBB"/>
<path d="M177.851 113.81C179.954 113.81 181.659 111.933 181.659 109.618C181.659 107.302 179.954 105.425 177.851 105.425C175.748 105.425 174.043 107.302 174.043 109.618C174.043 111.933 175.748 113.81 177.851 113.81Z" fill="#2E2E2E"/>
<path d="M200.448 106.335C198.931 106.335 197.497 105.331 196.905 103.683C196.132 101.53 197.091 99.0944 199.046 98.243C210.121 93.4219 215.429 93.8554 225.756 97.6055C227.753 98.3308 228.838 100.701 228.18 102.9C227.521 105.099 225.369 106.294 223.371 105.569C214.468 102.336 211.006 102.054 201.847 106.041C201.387 106.241 200.913 106.335 200.448 106.335Z" fill="#FFCBBB"/>
<path d="M225.756 97.5999C220.802 95.8007 217.003 94.7679 213.168 94.7095V103.097C216.137 103.158 219.139 104.026 223.371 105.563C225.369 106.289 227.521 105.093 228.179 102.895C228.838 100.696 227.753 98.3252 225.756 97.5999Z" fill="#FFBBA6"/>
<path d="M245.988 116.141C265.845 116.141 281.941 98.4175 281.941 76.5549C281.941 54.6923 265.845 36.9692 245.988 36.9692C226.132 36.9692 210.035 54.6923 210.035 76.5549C210.035 98.4175 226.132 116.141 245.988 116.141Z" fill="#FFF085"/>
<path d="M246.025 36.9692V116.14C265.865 116.118 281.942 98.4034 281.942 76.5544C281.942 54.7053 265.865 36.991 246.025 36.9692Z" fill="#FFD700"/>
<path d="M245.988 101.195C258.348 101.195 268.367 90.1632 268.367 76.5549C268.367 62.9467 258.348 51.9151 245.988 51.9151C233.629 51.9151 223.609 62.9467 223.609 76.5549C223.609 90.1632 233.629 101.195 245.988 101.195Z" fill="#FFD700"/>
<path d="M246.011 51.9151V101.195C258.36 101.181 268.367 90.1547 268.367 76.5549C268.367 62.9552 258.36 51.9285 246.011 51.9151Z" fill="#FFB139"/>
</g>
<g filter="url(#filter0_f_514_1850)">
<ellipse cx="207.748" cy="184.248" rx="55.7802" ry="6.55901" fill="#3F3F3F" fill-opacity="0.05"/>
</g>
<path d="M121.958 28.9631L116.533 32.2294L113.566 38.2026L110.6 32.2294L105.175 28.9631L110.6 25.6968L113.566 19.7236L116.533 25.6968L121.958 28.9631Z" fill="#F7D694"/>
<path d="M75.6289 71.4708L70.2039 74.7371L67.2373 80.7103L64.2708 74.7371L58.8457 71.4708L64.2708 68.2045L67.2373 62.2314L70.2039 68.2045L75.6289 71.4708Z" fill="#F7D694"/>
<path d="M98.5896 40.8653L89.171 46.5358L84.0209 56.906L78.8707 46.5358L69.4521 40.8653L78.8707 35.1947L84.0209 24.8245L89.171 35.1947L98.5896 40.8653Z" fill="#FCD884"/>
<path d="M111.147 73.3956L105.722 76.6619L102.756 82.6351L99.7893 76.6619L94.3643 73.3956L99.7893 70.1293L102.756 64.1561L105.722 70.1293L111.147 73.3956Z" fill="#FFCD02"/>
<path d="M67.7041 13.6603L62.2791 16.9266L59.3125 22.8998L56.3459 16.9266L50.9209 13.6603L56.3459 10.394L59.3125 4.42081L62.2791 10.394L67.7041 13.6603Z" fill="#FFCD02"/>
<path d="M25.1374 147.221L15.7189 152.891L10.5687 163.262L5.41855 152.891L-4 147.221L5.41855 141.55L10.5687 131.18L15.7189 141.55L25.1374 147.221Z" fill="#FCD884"/>
<path d="M397.745 159.373L394.698 161.207L393.031 164.562L391.365 161.207L388.318 159.373L391.365 157.538L393.031 154.183L394.698 157.538L397.745 159.373Z" fill="#F7D694"/>
<path d="M371.725 183.247L368.678 185.081L367.012 188.436L365.346 185.081L362.299 183.247L365.346 181.412L367.012 178.057L368.678 181.412L371.725 183.247Z" fill="#F7D694"/>
<path d="M384.621 166.057L379.331 169.242L376.438 175.066L373.546 169.242L368.256 166.057L373.546 162.872L376.438 157.048L379.331 162.872L384.621 166.057Z" fill="#FCD884"/>
<path d="M391.673 184.328L388.626 186.162L386.96 189.517L385.294 186.162L382.247 184.328L385.294 182.493L386.96 179.138L388.626 182.493L391.673 184.328Z" fill="#FFCD02"/>
<path d="M367.274 150.778L364.227 152.612L362.561 155.967L360.895 152.612L357.848 150.778L360.895 148.943L362.561 145.589L364.227 148.943L367.274 150.778Z" fill="#FFCD02"/>
<path d="M399.035 72.2141L393.745 75.399L390.852 81.2233L387.96 75.399L382.67 72.2141L387.96 69.0293L390.852 63.205L393.745 69.0293L399.035 72.2141Z" fill="#FCD884"/>
<path d="M346.606 52.8912L343.559 54.7257L341.893 58.0805L340.227 54.7257L337.18 52.8912L340.227 51.0567L341.893 47.7019L343.559 51.0567L346.606 52.8912Z" fill="#FFCD02"/>
<defs>
<filter id="filter0_f_514_1850" x="147.968" y="173.689" width="119.561" height="21.118" filterUnits="userSpaceOnUse" color-interpolation-filters="sRGB">
<feFlood flood-opacity="0" result="BackgroundImageFix"/>
<feBlend mode="normal" in="SourceGraphic" in2="BackgroundImageFix" result="shape"/>
<feGaussianBlur stdDeviation="2" result="effect1_foregroundBlur_514_1850"/>
</filter>
<clipPath id="clip0_514_1850">
<rect width="129.973" height="143.106" fill="white" transform="translate(151.968 36.9689)"/>
</clipPath>
</defs>
</svg>
