<svg width="373" height="176" viewBox="0 0 373 176" fill="none" xmlns="http://www.w3.org/2000/svg">
<g clip-path="url(#clip0_514_1844)">
<path d="M219.86 104.311C220.746 103.04 221.264 101.508 221.264 99.8583C221.264 96.0199 218.461 92.8166 214.731 92.0673C214.423 70.8924 196.629 53.8182 174.719 53.8182C152.809 53.8182 135.015 70.8924 134.707 92.0676C130.977 92.8167 128.174 96.0199 128.174 99.8586C128.174 101.508 128.692 103.04 129.578 104.311C126.434 107.18 124.468 111.249 124.468 115.766C124.468 123.409 130.09 129.776 137.541 131.199C136.822 132.637 136.418 134.252 136.418 135.958C136.418 141.99 141.46 146.879 147.68 146.879H201.758C207.978 146.879 213.02 141.99 213.02 135.958C213.02 134.252 212.616 132.637 211.897 131.199C219.349 129.776 224.97 123.409 224.97 115.766C224.97 111.249 223.004 107.18 219.86 104.311Z" fill="#596C76"/>
<path d="M178.156 146.88H147.68C144.57 146.88 141.753 145.658 139.715 143.681C137.677 141.704 136.416 138.976 136.416 135.959C136.416 134.253 136.822 132.638 137.542 131.2C133.815 130.49 130.547 128.54 128.21 125.816C125.872 123.09 124.468 119.589 124.468 115.766C124.468 111.25 126.433 107.179 129.579 104.31C129.135 103.676 128.783 102.975 128.544 102.228C128.303 101.478 128.174 100.684 128.174 99.8577C128.174 96.0202 130.976 92.8169 134.707 92.0672C134.862 81.4789 139.385 71.9181 146.613 65.0027C153.838 58.0872 163.764 53.8195 174.718 53.8195C178.283 53.8195 181.738 54.2719 185.026 55.1174C178.207 56.8776 172.102 60.3366 167.227 65.0027C160.001 71.9181 155.476 81.4789 155.321 92.0672C155.321 92.0672 156.503 100.134 155.465 101.009L178.156 146.88Z" fill="#465A61"/>
<path d="M199.053 162.746V174.364C199.053 175.269 198.3 175.999 197.367 175.999H152.07C151.142 175.999 150.384 175.269 150.384 174.364V162.746C150.384 157.659 152.271 153.003 155.399 149.394C157.039 147.504 159.022 145.901 161.253 144.674C164.363 142.961 167.963 141.982 171.797 141.982H177.64C181.479 141.982 185.076 142.961 188.189 144.672C190.418 145.898 192.4 147.501 194.038 149.394C197.169 153.003 199.053 157.659 199.053 162.746Z" fill="#97DA7B"/>
<path d="M174.719 167.162C173.669 167.162 172.817 166.336 172.817 165.318V151.029C172.817 150.011 173.669 149.185 174.719 149.185C175.769 149.185 176.62 150.011 176.62 151.029V165.318C176.62 166.336 175.769 167.162 174.719 167.162Z" fill="#80D261"/>
<path d="M181.378 142.298C171.334 144.011 163.701 152.516 163.701 162.746V175.999H152.072C151.141 175.999 150.386 175.267 150.386 174.363V162.746C150.386 151.279 159.972 141.983 171.797 141.983H177.642C178.916 141.983 180.165 142.092 181.378 142.298Z" fill="#80D261"/>
<path d="M188.189 144.673C188.143 151.847 182.128 157.652 174.719 157.652C171.197 157.652 167.994 156.339 165.594 154.195C162.943 151.829 161.276 148.442 161.251 144.675C163.439 143.468 165.868 142.629 168.45 142.236V132.208H181.094V142.252C183.638 142.65 186.031 143.484 188.189 144.673Z" fill="#FFDFCF"/>
<path d="M200.573 96.2576C202.588 95.2438 204.989 94.9522 207.338 95.6092C212.197 96.9706 214.999 101.897 213.595 106.612C212.188 111.324 206.265 116.873 201.403 115.508C201.039 115.405 200.689 115.267 200.355 115.093H149.084C148.75 115.267 148.401 115.405 148.036 115.508C143.174 116.873 137.251 111.324 135.847 106.612C134.44 101.897 137.242 96.9706 142.101 95.6092C144.45 94.952 146.851 95.2438 148.865 96.2576H200.573Z" fill="#FFCEBF"/>
<path d="M200.571 92.6248V111.807C200.571 123.52 192.289 133.355 181.094 136.109C179.053 136.61 176.919 136.876 174.719 136.876C160.441 136.876 151.401 125.653 151.401 111.807L148.866 93.5524C148.866 92.1702 150.217 91.1653 151.591 91.5294C153.856 92.1289 157.38 92.8212 161.614 92.8341C168.682 92.8522 177.724 90.9715 186.14 83.5752C186.894 82.9113 188.074 83.0767 188.609 83.9162C190.037 86.1534 193.175 89.8349 198.664 90.5453C199.751 90.6871 200.571 91.5629 200.571 92.6248Z" fill="#FFDFCF"/>
<path d="M181.094 136.109C179.054 136.61 176.92 136.876 174.719 136.876C160.442 136.876 148.866 125.654 148.866 111.807V93.5524C148.866 92.1702 150.217 91.1653 151.592 91.5295C153.856 92.1289 157.381 92.8212 161.614 92.8341V111.807C161.614 123.52 169.897 133.357 181.094 136.109Z" fill="#FFCEBF"/>
<path d="M164.769 105.257C163.719 105.257 162.868 104.432 162.868 103.413V100.161C162.868 99.1431 163.719 98.3177 164.769 98.3177C165.819 98.3177 166.67 99.1431 166.67 100.161V103.413C166.67 104.431 165.819 105.257 164.769 105.257Z" fill="#465A61"/>
<path d="M184.67 105.257C183.62 105.257 182.769 104.432 182.769 103.413V100.161C182.769 99.1431 183.62 98.3177 184.67 98.3177C185.72 98.3177 186.571 99.1431 186.571 100.161V103.413C186.571 104.431 185.72 105.257 184.67 105.257Z" fill="#465A61"/>
<path d="M146.331 110.683C145.281 110.683 144.43 109.858 144.43 108.84C144.43 106.903 143.085 105.2 141.159 104.7C140.144 104.436 139.543 103.425 139.814 102.442C140.086 101.458 141.129 100.876 142.143 101.138C145.729 102.07 148.233 105.237 148.233 108.84C148.233 109.858 147.382 110.683 146.331 110.683Z" fill="#FFB09E"/>
<path d="M203.107 110.683C202.057 110.683 201.206 109.858 201.206 108.84C201.206 105.236 203.71 102.07 207.296 101.138C208.311 100.874 209.353 101.458 209.625 102.441C209.896 103.425 209.294 104.436 208.28 104.7C206.354 105.2 205.009 106.902 205.009 108.839C205.009 109.858 204.157 110.683 203.107 110.683Z" fill="#FFB09E"/>
<path d="M174.72 121.292C171.804 121.292 168.888 120.216 166.668 118.063C165.925 117.343 165.925 116.176 166.668 115.456C167.41 114.736 168.614 114.736 169.357 115.456C172.314 118.323 177.125 118.323 180.082 115.456C180.825 114.736 182.029 114.736 182.772 115.456C183.514 116.176 183.514 117.343 182.772 118.063C180.551 120.216 177.636 121.292 174.72 121.292Z" fill="#FE646F"/>
<path d="M173.293 133.326V145.429C169.95 147.581 167.264 150.617 165.594 154.195C162.943 151.829 161.276 148.442 161.251 144.675C163.439 143.468 165.868 142.629 168.45 142.236V133.326H173.293Z" fill="#FFCEBF"/>
<path d="M230.118 143.218L213.956 146.88L197.794 143.218C195.009 142.587 192.343 144.637 192.343 147.411V171.693C192.343 174.071 194.331 175.999 196.784 175.999H231.129C233.581 175.999 235.569 174.071 235.569 171.693V147.411C235.569 144.637 232.904 142.587 230.118 143.218Z" fill="#FD8087"/>
<path d="M203.369 176H196.785C194.331 176 192.343 174.073 192.343 171.693V147.411C192.343 144.638 195.008 142.588 197.794 143.22L200.803 143.901C199.68 144.67 198.93 145.939 198.93 147.411V171.693C198.93 174.073 200.917 176 203.369 176Z" fill="#FE646F"/>
<path d="M220.401 156.757C219.538 156.757 218.756 156.183 218.551 155.332C218.312 154.34 218.948 153.349 219.97 153.117L229.686 150.916C230.708 150.684 231.731 151.3 231.97 152.292C232.209 153.283 231.574 154.275 230.551 154.507L220.836 156.708C220.69 156.741 220.544 156.757 220.401 156.757Z" fill="#596C76"/>
<path d="M214.057 163.759H210.179C206.673 163.759 203.832 166.514 203.832 169.913V175.998H220.403V169.913C220.403 166.514 217.562 163.759 214.057 163.759Z" fill="#FFDFCF"/>
<path d="M215.107 163.847C212.113 164.339 209.832 166.868 209.832 169.912V175.999H203.813V169.912C203.813 166.515 206.655 163.759 210.159 163.759H214.037C214.403 163.758 214.76 163.788 215.107 163.847Z" fill="#FFCEBF"/>
<path d="M142.87 163.592C142.246 163.592 141.635 163.294 141.271 162.748L116.736 125.92C116.166 125.065 116.419 123.923 117.301 123.371C118.183 122.818 119.36 123.064 119.93 123.919L144.466 160.747C145.035 161.602 144.782 162.744 143.9 163.296C143.581 163.496 143.224 163.592 142.87 163.592Z" fill="#2ED1E2"/>
<path d="M147.77 161.231H145.432C141.873 161.231 138.987 164.03 138.987 167.481V169.749C138.987 173.201 141.873 175.999 145.432 175.999H147.77C151.33 175.999 154.216 173.201 154.216 169.749V167.481C154.216 164.03 151.33 161.231 147.77 161.231Z" fill="#FFDFCF"/>
<path d="M149.394 175.799C148.877 175.929 148.332 175.998 147.771 175.998H145.434C141.874 175.998 138.987 173.2 138.987 169.749V167.48C138.987 164.028 141.874 161.23 145.434 161.23H147.771C148.332 161.23 148.877 161.299 149.394 161.429C146.62 162.128 144.572 164.571 144.572 167.48V169.749C144.572 172.657 146.62 175.101 149.394 175.799Z" fill="#FFCEBF"/>
</g>
<path d="M4.53098 54.5215C7.03336 54.5215 9.06195 52.5544 9.06195 50.1278C9.06195 47.7013 7.03336 45.7342 4.53098 45.7342C2.02859 45.7342 0 47.7013 0 50.1278C0 52.5544 2.02859 54.5215 4.53098 54.5215Z" fill="#ED1C24"/>
<path d="M229.211 12.9022C226.832 13.6535 225.531 16.133 226.306 18.4403C227.08 20.7476 229.637 22.009 232.017 21.2577C234.396 20.5063 235.697 18.0268 234.922 15.7195C234.147 13.4122 231.59 12.1508 229.211 12.9022Z" fill="#ED1C24"/>
<path d="M365.211 68.1749C362.832 68.9262 361.531 71.4057 362.306 73.7131C363.08 76.0204 365.637 77.2817 368.017 76.5304C370.396 75.7791 371.697 73.2996 370.922 70.9923C370.147 68.6849 367.59 67.4236 365.211 68.1749Z" fill="#ED1C24"/>
<path d="M65.6992 41.3405H70.2302V47.931H65.6992V41.3405Z" fill="#FF1D25"/>
<path d="M172.413 33.9031L168.104 35.2635L166 28.9968L170.308 27.6364L172.413 33.9031Z" fill="#FF1D25"/>
<path d="M311.257 99.0735L306.949 100.434L304.845 94.1673L309.153 92.8069L311.257 99.0735Z" fill="#FF1D25"/>
<path d="M35 17.484L39.5304 13.0909L42.7344 16.1978L38.204 20.5909L35 17.484Z" fill="#06AAE9"/>
<path d="M205.281 35.9543L202.376 41.4918L198.337 39.4995L201.242 33.9621L205.281 35.9543Z" fill="#06AAE9"/>
<path d="M341.281 91.227L338.376 96.7645L334.337 94.7723L337.242 89.2348L341.281 91.227Z" fill="#06AAE9"/>
<path d="M5 79.5447L9.53041 75.1516L12.7344 78.2584L8.20396 82.6516L5 79.5447Z" fill="#7AC943"/>
<path d="M215.548 2.67872L212.643 8.21619L208.605 6.22396L211.51 0.686493L215.548 2.67872Z" fill="#7AC943"/>
<path d="M351.548 57.9515L348.643 63.4889L344.605 61.4967L347.51 55.9592L351.548 57.9515Z" fill="#7AC943"/>
<path d="M54 71.4705L57.204 68.3636L61.7344 72.7568L58.5304 75.8636L54 71.4705Z" fill="#7AC943"/>
<path d="M137.757 19.3522L135.703 23.2683L129.992 20.4513L132.046 16.5352L137.757 19.3522Z" fill="#7AC943"/>
<path d="M273.757 74.6249L271.703 78.5411L265.992 75.7241L268.046 71.8079L273.757 74.6249Z" fill="#7AC943"/>
<path d="M54.3716 94.0645H58.9026V100.655H54.3716V94.0645Z" fill="#FF1D25"/>
<path d="M305.193 45.5394L300.885 46.8998L298.781 40.6332L303.089 39.2728L305.193 45.5394Z" fill="#FF1D25"/>
<defs>
<clipPath id="clip0_514_1844">
<rect width="126" height="122.182" fill="white" transform="translate(113 53.8182)"/>
</clipPath>
</defs>
</svg>
